<?xml version="1.0" encoding="UTF-8"?>
<mxfile host="app.diagrams.net" modified="16-database-connection-pooling" agent="PlantUML Converter" version="1.0" etag="plantuml-diagram" type="device">
  <diagram id="plantuml-16-database-connection-pooling" name="16-database-connection-pooling">
    <mxGraphModel dx="1422" dy="794" grid="1" gridSize="10" guides="1" tooltips="1" connect="1" arrows="1" fold="1" page="1" pageScale="1" pageWidth="827" pageHeight="1169" math="0" shadow="0">
      <root>
        <mxCell id="0" />
        <mxCell id="1" parent="0" />
        <mxCell id="plantuml-container" value="" style="shape=image;html=1;verticalAlign=top;verticalLabelPosition=bottom;labelBackgroundColor=#ffffff;imageAspect=0;aspect=fixed;image=data:image/svg+xml,PHN2ZyB4bWxucz0iaHR0cDovL3d3dy53My5vcmcvMjAwMC9zdmciIHdpZHRoPSI0MDAiIGhlaWdodD0iMzAwIiB2aWV3Qm94PSIwIDAgNDAwIDMwMCI+CiAgPHJlY3Qgd2lkdGg9IjQwMCIgaGVpZ2h0PSIzMDAiIGZpbGw9IiNmOGY5ZmEiIHN0cm9rZT0iI2RlZTJlNiIvPgogIDx0ZXh0IHg9IjIwMCIgeT0iMTUwIiB0ZXh0LWFuY2hvcj0ibWlkZGxlIiBmb250LWZhbWlseT0iQXJpYWwiIGZvbnQtc2l6ZT0iMTQiIGZpbGw9IiM2Yzc1N2QiPgogICAgRGlhZ3JhbWEgUGxhbnRVTUw6IDE2LWRhdGFiYXNlLWNvbm5lY3Rpb24tcG9vbGluZwogIDwvdGV4dD4KICA8dGV4dCB4PSIyMDAiIHk9IjE3MCIgdGV4dC1hbmNob3I9Im1pZGRsZSIgZm9udC1mYW1pbHk9IkFyaWFsIiBmb250LXNpemU9IjEyIiBmaWxsPSIjNmM3NTdkIj4KICAgIChTVkcgbsOjbyBkaXNwb27DrXZlbCAtIHVzZSBvIGPDs2RpZ28gUGxhbnRVTUwgaW5jb3Jwb3JhZG8pCiAgPC90ZXh0Pgo8L3N2Zz4=;plantuml=QHN0YXJ0dW1sCiFpbmNsdWRlIGh0dHBzOi8vcmF3LmdpdGh1YnVzZXJjb250ZW50LmNvbS9wbGFudHVtbC1zdGRsaWIvQzQtUGxhbnRVTUwvbWFzdGVyL0M0X1NlcXVlbmNlLnB1bWwKCnRpdGxlIERhdGFiYXNlIENvbm5lY3Rpb24gUG9vbGluZyBmb3IgRWZmaWNpZW50IExvYWQgSGFuZGxpbmcKClBlcnNvbih1c2VyMSwgIlVzZXIgMSIsICJDbGllbnQgbWFraW5nIHJlcXVlc3QiKQpQZXJzb24odXNlcjIsICJVc2VyIDIiLCAiQ2xpZW50IG1ha2luZyByZXF1ZXN0IikKUGVyc29uKHVzZXIzLCAiVXNlciAzIiwgIkNsaWVudCBtYWtpbmcgcmVxdWVzdCIpCgpTeXN0ZW1fQm91bmRhcnkobG9hZF9iYWxhbmNlciwgIkxvYWQgQmFsYW5jZXIiKSB7CiAgICBDb250YWluZXIobGIsICJMb2FkIEJhbGFuY2VyIiwgIkhBUHJveHkvQUxCIiwgIkRpc3RyaWJ1dGVzIHJlcXVlc3RzIikKfQoKU3lzdGVtX0JvdW5kYXJ5KGFwcF90aWVyLCAiQXBwbGljYXRpb24gVGllciIpIHsKICAgIENvbnRhaW5lcihhcHAxLCAiQXBwIEluc3RhbmNlIDEiLCAiSmF2YS9TcHJpbmcgQm9vdCIsICJBcHBsaWNhdGlvbiBzZXJ2ZXIgd2l0aCBjb25uZWN0aW9uIHBvb2wiKQogICAgQ29udGFpbmVyKGFwcDIsICJBcHAgSW5zdGFuY2UgMiIsICJKYXZhL1NwcmluZyBCb290IiwgIkFwcGxpY2F0aW9uIHNlcnZlciB3aXRoIGNvbm5lY3Rpb24gcG9vbCIpCiAgICBDb250YWluZXIoYXBwMywgIkFwcCBJbnN0YW5jZSAzIiwgIkphdmEvU3ByaW5nIEJvb3QiLCAiQXBwbGljYXRpb24gc2VydmVyIHdpdGggY29ubmVjdGlvbiBwb29sIikKfQoKU3lzdGVtX0JvdW5kYXJ5KHBvb2xfbGF5ZXIsICJDb25uZWN0aW9uIFBvb2wgTGF5ZXIiKSB7CiAgICBDb250YWluZXIocG9vbDEsICJDb25uZWN0aW9uIFBvb2wgMSIsICJIaWthcmlDUC9DM1AwIiwgIlBvb2w6IDEwIGNvbm5lY3Rpb25zIikKICAgIENvbnRhaW5lcihwb29sMiwgIkNvbm5lY3Rpb24gUG9vbCAyIiwgIkhpa2FyaUNQL0MzUDAiLCAiUG9vbDogMTAgY29ubmVjdGlvbnMiKQogICAgQ29udGFpbmVyKHBvb2wzLCAiQ29ubmVjdGlvbiBQb29sIDMiLCAiSGlrYXJpQ1AvQzNQMCIsICJQb29sOiAxMCBjb25uZWN0aW9ucyIpCn0KClN5c3RlbV9Cb3VuZGFyeShkYl9jbHVzdGVyLCAiRGF0YWJhc2UgQ2x1c3RlciIpIHsKICAgIENvbnRhaW5lckRiKGRiX3ByaW1hcnksICJQcmltYXJ5IERCIiwgIlBvc3RncmVTUUwiLCAiV3JpdGUgb3BlcmF0aW9ucyIpCiAgICBDb250YWluZXJEYihkYl9yZXBsaWNhMSwgIlJlYWQgUmVwbGljYSAxIiwgIlBvc3RncmVTUUwiLCAiUmVhZCBvcGVyYXRpb25zIikKICAgIENvbnRhaW5lckRiKGRiX3JlcGxpY2EyLCAiUmVhZCBSZXBsaWNhIDIiLCAiUG9zdGdyZVNRTCIsICJSZWFkIG9wZXJhdGlvbnMiKQp9CgpTeXN0ZW1fQm91bmRhcnkobW9uaXRvcmluZywgIkNvbm5lY3Rpb24gUG9vbCBNb25pdG9yaW5nIikgewogICAgQ29udGFpbmVyKG1ldHJpY3MsICJQb29sIE1ldHJpY3MiLCAiUHJvbWV0aGV1cyIsICJDb25uZWN0aW9uIHBvb2wgc3RhdGlzdGljcyIpCiAgICBDb250YWluZXIoZGFzaGJvYXJkLCAiRGFzaGJvYXJkIiwgIkdyYWZhbmEiLCAiUG9vbCB1dGlsaXphdGlvbiB2aXN1YWxpemF0aW9uIikKICAgIENvbnRhaW5lcihhbGVydHMsICJBbGVydGluZyIsICJBbGVydE1hbmFnZXIiLCAiUG9vbCBleGhhdXN0aW9uIGFsZXJ0cyIpCn0KCicgUmVxdWVzdCBmbG93IHNlcXVlbmNlCnVzZXIxIC0+IGxiIDogMS4gSFRUUCBSZXF1ZXN0CmFjdGl2YXRlIGxiCmxiIC0+IGFwcDEgOiAyLiBSb3V0ZSB0byBBcHAgMQphY3RpdmF0ZSBhcHAxCmFwcDEgLT4gcG9vbDEgOiAzLiBHZXQgY29ubmVjdGlvbiBmcm9tIHBvb2wKYWN0aXZhdGUgcG9vbDEKcG9vbDEgLT4gZGJfcHJpbWFyeSA6IDQuIFVzZSBleGlzdGluZyBjb25uZWN0aW9uCmFjdGl2YXRlIGRiX3ByaW1hcnkKZGJfcHJpbWFyeSAtLT4gcG9vbDEgOiA1LiBRdWVyeSByZXN1bHQKZGVhY3RpdmF0ZSBkYl9wcmltYXJ5CnBvb2wxIC0tPiBhcHAxIDogNi4gUmV0dXJuIGNvbm5lY3Rpb24gdG8gcG9vbApkZWFjdGl2YXRlIHBvb2wxCmFwcDEgLS0+IGxiIDogNy4gSFRUUCBSZXNwb25zZQpkZWFjdGl2YXRlIGFwcDEKbGIgLS0+IHVzZXIxIDogOC4gUmVzcG9uc2UKZGVhY3RpdmF0ZSBsYgoKJyBDb25jdXJyZW50IHJlcXVlc3QgaGFuZGxpbmcKdXNlcjIgLT4gbGIgOiA5LiBDb25jdXJyZW50IFJlcXVlc3QKYWN0aXZhdGUgbGIKbGIgLT4gYXBwMiA6IDEwLiBSb3V0ZSB0byBBcHAgMgphY3RpdmF0ZSBhcHAyCmFwcDIgLT4gcG9vbDIgOiAxMS4gR2V0IGNvbm5lY3Rpb24gZnJvbSBwb29sCmFjdGl2YXRlIHBvb2wyCnBvb2wyIC0+IGRiX3JlcGxpY2ExIDogMTIuIFVzZSBwb29sZWQgY29ubmVjdGlvbgphY3RpdmF0ZSBkYl9yZXBsaWNhMQpkYl9yZXBsaWNhMSAtLT4gcG9vbDIgOiAxMy4gUmVhZCByZXN1bHQKZGVhY3RpdmF0ZSBkYl9yZXBsaWNhMQpwb29sMiAtLT4gYXBwMiA6IDE0LiBSZXR1cm4gY29ubmVjdGlvbgpkZWFjdGl2YXRlIHBvb2wyCmFwcDIgLS0+IGxiIDogMTUuIFJlc3BvbnNlCmRlYWN0aXZhdGUgYXBwMgpsYiAtLT4gdXNlcjIgOiAxNi4gUmVzcG9uc2UKZGVhY3RpdmF0ZSBsYgoKJyBIaWdoIGxvYWQgc2NlbmFyaW8KdXNlcjMgLT4gbGIgOiAxNy4gSGlnaCBsb2FkIHJlcXVlc3QKYWN0aXZhdGUgbGIKbGIgLT4gYXBwMyA6IDE4LiBSb3V0ZSB0byBBcHAgMwphY3RpdmF0ZSBhcHAzCmFwcDMgLT4gcG9vbDMgOiAxOS4gUmVxdWVzdCBjb25uZWN0aW9uIChwb29sIGJ1c3kpCmFjdGl2YXRlIHBvb2wzCm5vdGUgcmlnaHQgb2YgcG9vbDMgOiBQb29sIGF0IGNhcGFjaXR5LFxucmVxdWVzdCB3YWl0cyBpbiBxdWV1ZQpwb29sMyAtPiBkYl9yZXBsaWNhMiA6IDIwLiBXYWl0IGZvciBhdmFpbGFibGUgY29ubmVjdGlvbgphY3RpdmF0ZSBkYl9yZXBsaWNhMgpkYl9yZXBsaWNhMiAtLT4gcG9vbDMgOiAyMS4gQ29ubmVjdGlvbiBhdmFpbGFibGUKZGVhY3RpdmF0ZSBkYl9yZXBsaWNhMgpwb29sMyAtLT4gYXBwMyA6IDIyLiBDb25uZWN0aW9uIGFjcXVpcmVkCmRlYWN0aXZhdGUgcG9vbDMKYXBwMyAtLT4gbGIgOiAyMy4gUmVzcG9uc2UgKGFmdGVyIHdhaXQpCmRlYWN0aXZhdGUgYXBwMwpsYiAtLT4gdXNlcjMgOiAyNC4gUmVzcG9uc2UKZGVhY3RpdmF0ZSBsYgoKJyBDb25uZWN0aW9uIHBvb2wgcmVsYXRpb25zaGlwcwphcHAxIDwtLT4gcG9vbDEgOiBNYW5hZ2VzIHBvb2wgbGlmZWN5Y2xlCmFwcDIgPC0tPiBwb29sMiA6IE1hbmFnZXMgcG9vbCBsaWZlY3ljbGUKYXBwMyA8LS0+IHBvb2wzIDogTWFuYWdlcyBwb29sIGxpZmVjeWNsZQoKJyBEYXRhYmFzZSBjb25uZWN0aW9ucwpwb29sMSA8LS0+IGRiX3ByaW1hcnkgOiA1IHdyaXRlIGNvbm5lY3Rpb25zCnBvb2wxIDwtLT4gZGJfcmVwbGljYTEgOiAzIHJlYWQgY29ubmVjdGlvbnMKcG9vbDEgPC0tPiBkYl9yZXBsaWNhMiA6IDIgcmVhZCBjb25uZWN0aW9ucwoKcG9vbDIgPC0tPiBkYl9wcmltYXJ5IDogMyB3cml0ZSBjb25uZWN0aW9ucwpwb29sMiA8LS0+IGRiX3JlcGxpY2ExIDogNCByZWFkIGNvbm5lY3Rpb25zCnBvb2wyIDwtLT4gZGJfcmVwbGljYTIgOiAzIHJlYWQgY29ubmVjdGlvbnMKCnBvb2wzIDwtLT4gZGJfcHJpbWFyeSA6IDQgd3JpdGUgY29ubmVjdGlvbnMKcG9vbDMgPC0tPiBkYl9yZXBsaWNhMSA6IDMgcmVhZCBjb25uZWN0aW9ucwpwb29sMyA8LS0+IGRiX3JlcGxpY2EyIDogMyByZWFkIGNvbm5lY3Rpb25zCgonIE1vbml0b3JpbmcgcmVsYXRpb25zaGlwcwpwb29sMSAtLT4gbWV0cmljcyA6IFBvb2wgc3RhdGlzdGljcwpwb29sMiAtLT4gbWV0cmljcyA6IFBvb2wgc3RhdGlzdGljcwpwb29sMyAtLT4gbWV0cmljcyA6IFBvb2wgc3RhdGlzdGljcwptZXRyaWNzIC0tPiBkYXNoYm9hcmQgOiBWaXN1YWxpemUgbWV0cmljcwptZXRyaWNzIC0tPiBhbGVydHMgOiBUcmlnZ2VyIGFsZXJ0cwoKbm90ZSBvdmVyIHBvb2wxLCBwb29sMwogICoqQ29ubmVjdGlvbiBQb29sIENvbmZpZ3VyYXRpb246KioKICDigKIgTWF4aW11bSBwb29sIHNpemU6IDEwIGNvbm5lY3Rpb25zCiAg4oCiIE1pbmltdW0gaWRsZSBjb25uZWN0aW9uczogMgogIOKAoiBDb25uZWN0aW9uIHRpbWVvdXQ6IDMwIHNlY29uZHMKICDigKIgSWRsZSB0aW1lb3V0OiAxMCBtaW51dGVzCiAg4oCiIE1heCBsaWZldGltZTogMzAgbWludXRlcwogIOKAoiBMZWFrIGRldGVjdGlvbiB0aHJlc2hvbGQ6IDYwIHNlY29uZHMKZW5kIG5vdGUKCm5vdGUgb3ZlciBkYl9wcmltYXJ5LCBkYl9yZXBsaWNhMgogICoqRGF0YWJhc2UgQ29ubmVjdGlvbiBMaW1pdHM6KioKICDigKIgUHJpbWFyeSBEQjogbWF4X2Nvbm5lY3Rpb25zID0gMjAwCiAg4oCiIEVhY2ggUmVwbGljYTogbWF4X2Nvbm5lY3Rpb25zID0gMTUwCiAg4oCiIFJlc2VydmVkIGNvbm5lY3Rpb25zOiAyMCAoYWRtaW4pCiAg4oCiIENvbm5lY3Rpb24gcG9vbGluZyByZWR1Y2VzIHRvdGFsIGNvbm5lY3Rpb25zCiAg4oCiIFByZXZlbnRzIGNvbm5lY3Rpb24gZXhoYXVzdGlvbgplbmQgbm90ZQoKbm90ZSBvdmVyIG1ldHJpY3MsIGFsZXJ0cwogICoqUG9vbCBNb25pdG9yaW5nIE1ldHJpY3M6KioKICDigKIgQWN0aXZlIGNvbm5lY3Rpb25zIGNvdW50CiAg4oCiIElkbGUgY29ubmVjdGlvbnMgY291bnQKICDigKIgQ29ubmVjdGlvbiB3YWl0IHRpbWUKICDigKIgUG9vbCB1dGlsaXphdGlvbiBwZXJjZW50YWdlCiAg4oCiIENvbm5lY3Rpb24gY3JlYXRpb24gcmF0ZQogIOKAoiBDb25uZWN0aW9uIGxlYWsgZGV0ZWN0aW9uCiAg4oCiIFF1ZXJ5IGV4ZWN1dGlvbiB0aW1lCmVuZCBub3RlCgpub3RlIGxlZnQgb2YgYXBwMQogICoqQ29ubmVjdGlvbiBQb29sIEJlbmVmaXRzOioqCiAg4oCiIFJlZHVjZXMgY29ubmVjdGlvbiBvdmVyaGVhZAogIOKAoiBQcmV2ZW50cyBjb25uZWN0aW9uIGV4aGF1c3Rpb24KICDigKIgSW1wcm92ZXMgcmVzcG9uc2UgdGltZXMKICDigKIgRW5hYmxlcyBjb25uZWN0aW9uIHJldXNlCiAg4oCiIFByb3ZpZGVzIGNvbm5lY3Rpb24gbGlmZWN5Y2xlIG1hbmFnZW1lbnQKICDigKIgU3VwcG9ydHMgY29ubmVjdGlvbiB2YWxpZGF0aW9uCmVuZCBub3RlCgpub3RlIHJpZ2h0IG9mIGxiCiAgKipMb2FkIERpc3RyaWJ1dGlvbiBTdHJhdGVneToqKgogIOKAoiBSb3VuZC1yb2JpbiBhY3Jvc3MgYXBwIGluc3RhbmNlcwogIOKAoiBIZWFsdGggY2hlY2sgaW50ZWdyYXRpb24KICDigKIgU2Vzc2lvbiBhZmZpbml0eSAoaWYgbmVlZGVkKQogIOKAoiBBdXRvbWF0aWMgZmFpbG92ZXIKICDigKIgQ29ubmVjdGlvbiBkcmFpbmluZyBkdXJpbmcgZGVwbG95bWVudAplbmQgbm90ZQoKbm90ZSBvdmVyIHVzZXIxLCB1c2VyMwogICoqQ29uY3VycmVudCBSZXF1ZXN0IEhhbmRsaW5nOioqCiAg4oCiIE11bHRpcGxlIHVzZXJzIHNlcnZlZCBzaW11bHRhbmVvdXNseQogIOKAoiBDb25uZWN0aW9uIHBvb2xzIHByZXZlbnQgYmxvY2tpbmcKICDigKIgRWZmaWNpZW50IHJlc291cmNlIHV0aWxpemF0aW9uCiAg4oCiIEdyYWNlZnVsIGRlZ3JhZGF0aW9uIHVuZGVyIGxvYWQKICDigKIgUXVldWUgbWFuYWdlbWVudCBmb3IgcGVhayB0cmFmZmljCmVuZCBub3RlCgpAZW5kdW1s;" vertex="1" parent="1">
          <mxGeometry x="40" y="40" width="400" height="300" as="geometry" />
        </mxCell>
      </root>
    </mxGraphModel>
  </diagram>
</mxfile>